# AST/ASF file generated using VICON BodyLanguage
# -----------------------------------------------
:version 1.10
:name VICON
:units
  mass 1.0
  length 0.45
  angle deg
:documentation
   .ast/.asf automatically generated from VICON data using
   VICON BodyBuilder and BodyLanguage model FoxedUp or BRILLIANT.MOD
:root
   order TX TY TZ RX RY RZ
   axis XYZ
   position 0 0 0  
   orientation 0 0 0 
:bonedata
  begin
     id 1 
     name lhipjoint
     direction 0.561001 -0.76473 0.316963 
     length 2.4722 
     axis 0 0 0  XYZ
  end
  begin
     id 2 
     name lfemur
     direction 0.34202 -0.939693 0  
     length 7.59403  
     axis 0 0 20  XYZ
    dof rx ry rz
    limits (-160.0 20.0)
           (-70.0 70.0)
           (-60.0 70.0)
  end
  begin
     id 3 
     name ltibia
     direction 0.34202 -0.939693 0   
     length 7.89655   
     axis 0 0 20   XYZ
    dof rx
    limits (-10.0 170.0)
  end
  begin
     id 4 
     name lfoot
     direction 0.061296 -0.168409 0.98381   
     length 2.73287   
     axis -90 7.62852e-016 20   XYZ
    dof rx rz
    limits (-45.0 90.0)
           (-70.0 20.0)
  end
  begin
     id 5 
     name ltoes
     direction 1.53547e-011 -4.21984e-011 1   
     length 1.37057   
     axis -90 7.62852e-016 20   XYZ
    dof rx
    limits (-90.0 20.0)
  end
  begin
     id 6 
     name rhipjoint
     direction -0.559611 -0.765599 0.317323   
     length 2.46939  
     axis 0 0 0  XYZ 
  end
  begin
     id 7 
     name rfemur
     direction -0.34202 -0.939693 0   
     length 7.53712   
     axis 0 0 -20   XYZ
    dof rx ry rz
    limits (-160.0 20.0)
           (-70.0 70.0)
           (-70.0 60.0)
  end
  begin
     id 8 
     name rtibia
     direction -0.34202 -0.939693 0   
     length 8.12549   
     axis 0 0 -20   XYZ
    dof rx
    limits (-10.0 170.0)
 end
 begin
     id 9 
     name rfoot
     direction -0.066984 -0.184037 0.980634   
     length 2.67541  
     axis -90 -7.62852e-016 -20   XYZ
    dof rx rz
    limits (-45.0 90.0)
           (-20.0 70.0)
  end
  begin
     id 10 
     name rtoes
     direction -1.53549e-011 -4.21786e-011 1   
     length 1.34085   
     axis -90 -7.62852e-016 -20   XYZ
    dof rx
    limits (-90.0 20.0)
  end
  begin
     id 11 
     name lowerback
     direction -0.0522728 0.992594 -0.109658   
     length 2.05633   
     axis 0 0 0   XYZ
    dof rx ry rz
    limits (-20.0 45.0)
           (-30.0 30.0)
           (-30.0 30.0)
  end
  begin
     id 12 
     name upperback
     direction 0.00589338 0.999977 0.00335704   
     length 2.05845   
     axis 0 0 0   XYZ
    dof rx ry rz
    limits (-20.0 45.0)
           (-30.0 30.0)
           (-30.0 30.0)
  end
  begin
     id 13 
     name thorax
     direction 0.0292928 0.998059 0.0549487   
     length 2.09281   
     axis 0 0 0   XYZ
    dof rx ry rz
    limits (-20.0 45.0)
           (-30.0 30.0)
           (-30.0 30.0)
  end
  begin
     id 14 
     name lowerneck
     direction 0.0356368 0.980775 0.191858   
     length 1.84767   
     axis 0 0 0   XYZ
    dof rx ry rz
    limits (-20.0 45.0)
           (-30.0 30.0)
           (-30.0 30.0)
  end
  begin
     id 15 
     name upperneck
     direction -0.0227605 0.98931 -0.14404   
     length 1.89582   
     axis 0 0 0   XYZ
    dof rx ry rz
    limits (-20.0 45.0)
           (-30.0 30.0)
           (-30.0 30.0)
  end
  begin
     id 16
     name head
     direction -0.00932985 0.997511 -0.0698904  
     length 1.90213  
     axis 0 0 0   XYZ
    dof rx ry rz
    limits (-20.0 45.0)
           (-30.0 30.0)
           (-30.0 30.0)
  end
  begin
     id 17 
     name lclavicle
     direction 0.873442 0.479511 0.0846686  
     length 3.41193  
     axis 0 0 0   XYZ
    dof ry rz
    limits (-20.0 10.0)
           (0.0 20.0)
  end
  begin
     id 18 
     name lhumerus
     direction 1 -4.4897e-011 -5.62117e-018   
     length 5.59864   
     axis 180 -30 -90   XYZ
    dof rx ry rz
    limits (-60.0 90.0)
           (-90.0 90.0)
           (-90.0 90.0)
  end
  begin
     id 19
     name lradius
     direction 1 -4.48966e-011 -6.26295e-027   
     length 3.59542   
     axis 180 -30 -90   XYZ
    dof rx
    limits (-10.0 170.0)
  end
  begin
     id 20
     name lwrist
     direction 1 -4.48947e-011 -1.74096e-026   
     length 1.79771   
     axis 1.04567e-014 90 90   XYZ
    dof ry
    limits (-180.0 0.0)
 end
  begin
     id 21 
     name lhand
     direction 1 -4.49085e-011 -3.48469e-026   
     length 0.572014   
     axis 2.22196e-014 90 90   XYZ
    dof rx rz
    limits (-90.0 90.0)
           (-45.0 45.0)
  end
  begin
     id 22 
     name lfingers
     direction 1 -4.48884e-011 -6.96135e-026   
     length 0.461173   
     axis 4.44383e-014 90 90   XYZ
    dof rx
    limits (0.0 90.0)
  end
  begin
     id 23
     name lthumb
     direction 0.707107 -6.34976e-011 0.707107   
     length 0.662154   
     axis -90 45 -5.4397e-014   XYZ
    dof rx rz
    limits (-45.0 45.0)
           (-45.0 45.0)
  end
  begin
     id 24 
     name rclavicle
     direction -0.890242 0.443271 0.104786   
     length 3.46753  
     axis 0 0 0   XYZ 
    dof ry rz
    limits (-10.0 20.0)
           (-20.0 0.0)
  end
  begin
     id 25 
     name rhumerus
     direction -1 -4.48963e-011 -5.41723e-018  
     length 5.8094   
     axis 180 30 90   XYZ
    dof rx ry rz
    limits (-90.0 60.0)
           (-90.0 90.0)
           (-90.0 90.0)
  end
  begin
     id 26 
     name rradius
     direction -1 -4.48958e-011 -6.51059e-027   
     length 3.66953   
     axis 180 30 90   XYZ
    dof rx
    limits (-10.0 170.0)
  end
  begin
     id 27 
     name rwrist
     direction -1 -4.48975e-011 -1.74124e-026   
     length 1.83476   
     axis 1.04567e-014 -90 -90   XYZ
    dof ry
    limits (-180.0 0.0)
  end
  begin
     id 28
     name rhand
     direction -1 -4.49013e-011 -3.48326e-026   
     length 0.57843   
     axis 2.22196e-014 -90 -90   XYZ
    dof rx rz
    limits (-90.0 90.0)
           (-45.0 45.0)
  end
  begin
     id 29
     name rfingers
     direction -1 -4.49023e-011 -6.9669e-026   
     length 0.466345   
     axis 4.44383e-014 -90 -90   XYZ
    dof rx
    limits (0.0 90.0)
  end
  begin
     id 30
     name rthumb
     direction -0.707107 -6.34926e-011 0.707107   
     length 0.669581   
     axis -90 -45 5.4397e-014   XYZ
    dof rx rz
    limits (-45.0 45.0)
           (-45.0 45.0)
  end
:hierarchy
  begin
    root lhipjoint rhipjoint lowerback
    lhipjoint lfemur
    lfemur ltibia
    ltibia lfoot
    lfoot ltoes
    rhipjoint rfemur
    rfemur rtibia
    rtibia rfoot
    rfoot rtoes
    lowerback upperback
    upperback thorax
    thorax lowerneck lclavicle rclavicle
    lowerneck upperneck
    upperneck head
    lclavicle lhumerus
    lhumerus lradius
    lradius lwrist
    lwrist lhand lthumb
    lhand lfingers
    rclavicle rhumerus
    rhumerus rradius
    rradius rwrist
    rwrist rhand rthumb
    rhand rfingers
  end

#!OML:ASF H:\SkateBoarding\Project 1\Capture day 1\Session 1\Skater.ASF
:FULLY-SPECIFIED
:DEGREES
80
root -12.4517 17.9714 -21.8064 8.32992 36.0414 6.88246
lowerback 14.9796 -0.139604 -5.16872
upperback 1.06979 -1.1018 -1.07681
thorax -7.19585 -0.374862 2.00565
lowerneck -19.6321 -3.92702 -1.00829
upperneck 29.9635 -5.54307 1.08714
head 13.4464 -2.30848 -0.334451
rclavicle 6.01075e-014 -4.03533e-014
rhumerus -29.4162 10.3345 -86.3541
rradius 46.3043
rwrist -17.3923
rhand -41.2784 0.855528
rfingers 7.12502
rthumb -14.1999 -28.6391
lclavicle 6.01075e-014 -4.03533e-014
lhumerus -41.2041 -12.1558 88.0989
lradius 47.1115
lwrist 37.4302
lhand -25.1652 17.6298
lfingers 7.12502
lthumb 1.35206 47.6053
rfemur -41.7223 5.57673 4.26919
rtibia 67.7491
rfoot -26.1234 16.2452
rtoes -10.7811
lfemur -12.6911 -13.082 -16.0822
ltibia 39.5878
lfoot -14.5103 -13.4476
ltoes 10.0605
81
root -12.4165 17.8361 -21.5864 8.46508 35.2647 7.23642
lowerback 15.0446 -0.177251 -5.36173
upperback 1.20454 -1.18336 -1.1098
thorax -7.07803 -0.41349 2.09626
lowerneck -19.5978 -3.6704 -0.916957
upperneck 29.7569 -5.09562 0.771004
head 13.3319 -2.15419 -0.393816
rclavicle 5.04665e-014 1.17283e-014
rhumerus -29.3778 11.1279 -86.3089
rradius 47.1087
rwrist -18.2027
rhand -41.5335 1.03872
rfingers 7.12502
rthumb -14.4457 -28.4385
lclavicle 5.04665e-014 1.17283e-014
lhumerus -39.7661 -12.172 88.049
lradius 46.5787
lwrist 36.9626
lhand -24.1527 15.9685
lfingers 7.12502
lthumb 2.32984 45.9355
rfemur -43.1445 5.47284 3.26913
rtibia 69.1664
rfoot -25.0357 17.4937
rtoes -9.60107
lfemur -12.1611 -13.0778 -16.4234
ltibia 40.802
lfoot -15.3408 -14.6277
ltoes 7.09524
82
root -12.3797 17.6825 -21.364 8.49298 34.5207 7.52106
lowerback 15.0773 -0.175247 -5.64689
upperback 1.35727 -1.21631 -1.02404
thorax -6.92148 -0.426109 2.35488
lowerneck -19.5136 -3.39943 -0.82987
upperneck 29.5293 -4.58594 0.330696
head 13.197 -1.98997 -0.489035
rclavicle 8.62725e-014 -3.85642e-014
rhumerus -29.2928 11.9156 -86.0531
rradius 47.8307
rwrist -18.8406
rhand -41.6654 1.31947
rfingers 7.12502
rthumb -14.5728 -28.1486
lclavicle 8.62725e-014 -3.85642e-014
lhumerus -37.7837 -12.1939 88.2666
lradius 45.7258
lwrist 36.4929
lhand -24.6602 16.2478
lfingers 7.12502
lthumb 1.83971 46.2196
rfemur -44.5757 5.18283 2.354
rtibia 70.5912
rfoot -23.7703 18.5786
rtoes -8.85527
lfemur -11.3753 -13.3984 -16.6727
ltibia 41.7608
lfoot -16.4433 -16.1514
ltoes 6.96821
83
root -12.3431 17.5453 -21.1409 8.47459 33.7628 7.81722
lowerback 15.3578 -0.25262 -5.54235
upperback 1.41736 -1.33384 -1.26083
thorax -7.0114 -0.487131 2.07154
lowerneck -19.4221 -3.11458 -0.802947
upperneck 29.4457 -4.21004 0.409463
head 13.1423 -1.81514 -0.397108
rclavicle 4.96962e-016 1.5704e-014
rhumerus -29.3439 12.5548 -86.2776
rradius 48.4769
rwrist -19.3397
rhand -41.7046 2.00391
rfingers 7.12502
rthumb -14.6106 -27.4614
lclavicle 4.96962e-016 1.5704e-014
lhumerus -36.072 -12.6664 88.1256
lradius 45.3632
lwrist 36.1453
lhand -25.9796 16.8438
lfingers 7.12502
lthumb 0.565449 46.8228
rfemur -45.8734 5.71961 1.32102
rtibia 71.9433
rfoot -22.9802 19.4058
rtoes -7.8564
lfemur -10.4786 -13.8876 -16.9636
ltibia 42.5907
lfoot -16.8703 -17.946
ltoes 8.45519
84
root -12.3116 17.4084 -20.9122 8.42341 33.101 8.10089
lowerback 15.4492 -0.258818 -5.78044
upperback 1.61138 -1.37735 -1.25739
thorax -6.8441 -0.508399 2.21856
lowerneck -20.0698 -2.69892 -0.526723
upperneck 29.8069 -3.54048 -0.101771
head 13.4072 -1.55597 -0.544924
rclavicle 6.64935e-014 1.39149e-015
rhumerus -29.2034 13.3604 -86.0647
rradius 49.1334
rwrist -19.8498
rhand -41.8552 2.50615
rfingers 7.12502
rthumb -14.7556 -26.9486
lclavicle 6.64935e-014 1.39149e-015
lhumerus -33.9579 -13.0776 88.2294
lradius 45.0297
lwrist 35.959
lhand -26.9576 16.4256
lfingers 7.12502
lthumb -0.37915 46.4051
rfemur -47.167 5.50953 0.446221
rtibia 73.3343
rfoot -21.9972 20.2217
rtoes -7.32708
lfemur -9.53194 -14.1096 -17.0833
ltibia 43.3718
lfoot -16.3851 -20.1106
ltoes 10.0331
85
root -12.2875 17.222 -20.6846 8.3873 32.442 8.41233
lowerback 15.7426 -0.29695 -5.8946
upperback 1.67903 -1.47511 -1.40892
thorax -6.9272 -0.552368 2.14608
lowerneck -19.688 -2.64788 -0.448345
upperneck 29.4429 -3.48919 -0.120651
head 13.1714 -1.53545 -0.546781
rclavicle -2.10712e-014 -5.96354e-015
rhumerus -29.2494 14.0628 -86.0712
rradius 49.7471
rwrist -20.2904
rhand -41.8817 3.1473
rfingers 7.12502
rthumb -14.7812 -26.3056
lclavicle -2.10712e-014 -5.96354e-015
lhumerus -31.9877 -13.691 88.0995
lradius 45.0737
lwrist 36.1561
lhand -28.0511 16.2412
lfingers 7.12502
lthumb -1.43528 46.2161
rfemur -48.7559 5.3251 -0.50558
rtibia 74.9451
rfoot -20.7004 21.155
rtoes -6.322
lfemur -8.64058 -14.1398 -17.1593
ltibia 44.2161
lfoot -15.4935 -22.367
ltoes 11.936
